<svg width="120" height="120" viewBox="0 0 120 120" fill="none" xmlns="http://www.w3.org/2000/svg">
<path fill-rule="evenodd" clip-rule="evenodd" d="M6.5901 6.5901C0 13.1802 0 23.7868 0 45V75C0 96.2132 0 106.82 6.5901 113.41C13.1802 120 23.7868 120 45 120H75C96.2132 120 106.82 120 113.41 113.41C120 106.82 120 96.2132 120 75V45C120 23.7868 120 13.1802 113.41 6.5901C106.82 0 96.2132 0 75 0H45C23.7868 0 13.1802 0 6.5901 6.5901ZM29.9508 37.5912C25.01 37.5912 21 33.5401 21 28.5456C21 23.551 25.01 19.5 29.9508 19.5C34.8917 19.5 38.9016 23.551 38.9016 28.5456C38.9016 33.5401 34.8968 37.5912 29.9508 37.5912ZM22.2787 100.5V44.0933H37.6229V100.5H22.2787ZM83.6557 100.5H99V65.8407C99 38.9039 70.342 39.8833 63.1967 53.144V44.0933H47.8525V100.5H63.1967V71.7634C63.1967 55.8003 83.6557 54.4927 83.6557 71.7634V100.5Z" fill="url(#paint0_linear)"/>
<defs>
<linearGradient id="paint0_linear" x1="60" y1="0" x2="60" y2="120" gradientUnits="userSpaceOnUse">
<stop stop-color="#0077B5"/>
<stop offset="1" stop-color="#0E6795"/>
</linearGradient>
</defs>
</svg>
